<?xml version="1.0" encoding="UTF-8"?>
<svg id="Layer_1" xmlns="http://www.w3.org/2000/svg" version="1.1" viewBox="0 0 1235.7 1235.4">
  <!-- Generator: Adobe Illustrator 29.8.1, SVG Export Plug-In . SVG Version: 2.1.1 Build 2)  -->
  <defs>
    <style>
      .st0 {
        fill: #1d1d1b;
      }

      .st0, .st1, .st2, .st3, .st4, .st5, .st6, .st7 {
        stroke-miterlimit: 10;
      }

      .st0, .st1, .st2, .st3, .st4, .st5, .st7 {
        stroke: #1d1d1b;
      }

      .st1, .st8, .st5 {
        fill: #fff;
      }

      .st1, .st2, .st3, .st6 {
        stroke-width: 2px;
      }

      .st2 {
        fill: #f8fbfb;
      }

      .st3 {
        fill: none;
      }

      .st4 {
        fill: #fd0;
      }

      .st6 {
        stroke: #fff;
      }

      .st7 {
        fill: #e20613;
      }
    </style>
  </defs>
  <g>
    <path class="st5" d="M617.35,618.6C382.64,383.89,192.38,193.63,192.38,193.63c234.71-234.71,615.24-234.71,849.94,0"/>
    <path class="st7" d="M617.35,618.6c234.71,234.71,424.97,424.97,424.97,424.97-234.71,234.71-615.24,234.71-849.94,0"/>
    <path class="st0" d="M617.35,618.6c-234.71,234.71-424.97,424.97-424.97,424.97-234.71-234.71-234.71-615.24,0-849.94"/>
    <path class="st4" d="M617.35,618.6c234.71-234.71,424.97-424.97,424.97-424.97,234.71,234.71,234.71,615.24,0,849.94"/>
  </g>
  <circle class="st6" cx="617.76" cy="618.94" r="572.42"/>
  <g>
    <path class="st8" d="M512.86,136.17c-25.52-15.77-35.32-21.93-49.69-29.96-15.2-8.48,10.6-16.79,42.89-23.76,26.12-5.64,54.78-3.22,80.7-2.51,45.95.71,100.09,17.37,100.09,17.37h0c26.8,11.27,53.86,21.96,80.34,33.93,42.2,19.09,81.18,43.24,115.98,74.22,13.85,12.33,29.82,22.26,44.91,33.17.44.32.18,1-.37.96-43.98-3.58-86.03,27.72-85.52,63.97,0,.27.22.54.49.56,3.79.3,6.04-6.52,10.61-2.96.22.17.28.5.14.73-12.44,20.66-36.85,35.27-32.18,69.98.06.48.68.65.98.27,37.09-47.9,80.01-83.31,129.79-109.34.24-.13.36-.43.26-.69-4.89-12.87-18.81-12.21-23.52-21.69-.19-.39.17-.85.6-.78,17.36,3.05,32.07,8.82,35.27,29.75.69,4.49,5.8,9.21,10.05,12.08,11.71,7.92,20.01,19.53,24.12,31.58,15.97,46.84,59.04,85.76,88.39,112.77,4.42,4.06,9.81,22.97,1.03,40.95-6.88,14.1-12.91,25.26-1.31,38.87,6.71,7.87,3.42,16.91,1.2,25.6-1.44,5.65-7.6,11.5-1.44,17.12,13.82,12.61,8.51,23.81-2.22,34.18-10.46,10.11-4.17,19.5-.15,29.26,16.94,41.15,10.45,52.74-34.05,57.57-25.57,2.78-51.35,3.67-78.53,5.5-.2.01-.39.14-.47.33-27.85,62.14-12.43,121.03,14.26,179.21.27.59-.54,1.07-.92.55-30.14-41.7-41.56-88.16-36.33-138.94,4.03-39.16.26-44.49-38.59-51.39-57.58-10.23-60.8-13.11-71.82-67.02-.06-.31-.38-.51-.69-.44-37.34,9.13-42.38,23.74-46.6,61.99-7.13,64.62,30.13,94.46,78.88,119.72,18.25,9.46,35.96,20.21,52.4,43.42.35.49-.27,1.1-.77.78-25.72-16.81-44.35-31.72-66.12-41.67-67.43-30.81-135.39-24.36-179.22,52.83M1085.14,457.6s0-.03.01-.04c1.79-8.06,3.5-24.1-6.84-31.61-23.14-16.81-71.12-66.74-70.06-71.94,1.5-7.33-12.81-13.53-24.48-12.87-.37.02-.67-.34-.55-.69,2.62-7.48,16.84-5.18,12.12-18.26-.09-.25-.37-.42-.64-.37-25.9,5.17-48.29,18.7-71.16,31,18-19.89,44.13-26.56,65.99-39.76.26-.16.34-.51.18-.77-4.41-7.31-8.54-8.97-12.89-7.02-52.21,23.5-97.72,55.84-131.64,102.62-12.15,16.75-4.2,28.16,12.59,35.79,3.46,1.57,8.47,1.61,9.63,8.37.06.36-.26.69-.62.63-4.9-.73-10.5-1.39-11.28,5.47-.02.2.07.41.23.52,35.97,25.87,44.12,44.86,36.7,87.57-.09.49-.76.64-1.02.21-8.35-14.26-7.02-32.41-20.56-44.8-.44-.4-1.1.1-.84.64,8.15,16.95-12.8,29.14-6.2,47.4.19.54-.47.97-.87.56-3.31-3.29-5.95-5.91-11.66-11.59-.43-.42-1.11.06-.86.61,11.88,25.65,14.67,47.03,18.67,67.9,5.56,29.06,21.42,45.54,50.48,51.33,41.81,8.34,83.73,4.82,125.64,2.75,14.67-.72,33.85,1.7,38.17-17.07,4-17.38-3.13-33.74-20.45-44.73-.35-.22-.32-.71.04-.91,9.89-5.57,3.55-18.74,11.52-22.96,24.99-13.22,9.96-18.96-3.87-25.35-.29-.13-.4-.48-.24-.75,8.57-14.33,17.62-34.88,5.44-55.14-1.13-1.88,2.44-14.61,2.14-20.31,0-.09.01-.17.05-.24l5.04-10.23s.02-.04.03-.06l2.05-5.92ZM845.47,389.56c39.34-36.36,78.65-72.56,131.32-91.26.33-.12.46-.53.26-.82-13.46-19.57-31.01-22.09-44.73-14.5-48.94,27.08-86.8,66.05-113.97,115.02-.31.55.46,1.11.89.65,28.76-30.93,53.8-66.15,98.84-87.86.57-.27,1.06.51.58.91-30.31,25.69-56.91,47.06-74.03,77.19-.3.53.4,1.08.85.67Z"/>
    <g>
      <path class="st8" d="M808.82,469.15c-40.45-4.49-80.66-3.24-120.58,3.94-67.21,21.33-134.89,43.85-193.21,86.2-70.74,51.37-130.62,114.29-189.91,177.91-8.54,9.16-18.84,17.35-29.74,23.47-12.1,6.79-20.96,1.12-19.93-12.58.81-10.79,4.07-21.9,8.59-31.8,19.82-43.45,51.09-78.46,85.57-110.53,19.85-18.47,41.68-34.81,61.35-53.48-104.8,51.73-170.53,142.88-235.47,234.83,120.11-259.85,338.63-382,633.35-317.97Z"/>
      <path class="st8" d="M498.8,174.42c-112.02-43.22-64.75-27.62-162.85-44.86,129.89-9.42,196.4-4.19,309.79,66.38,114.01,70.96,180.2,177.81,223.27,301.52-13.3-21.37-25.61-43.44-40.09-63.98-48.8-69.23-115.33-116.25-191.88-150.22-70.58-31.32-144.82-50.91-219.79-68.11-15.21-3.49-30.35-7.31-45.42-11.37-4.7-1.27-9.84-2.91-13.4-5.98-5-4.31-12.71-10.78-11.98-15.1.93-5.55,8.26-12.13,14.27-14.35,29.88-11.01,60.75-8.2,91.41-3.63,52.23,7.79-15.72-3.39,46.67,9.71Z"/>
      <path class="st8" d="M780.75,467.37c-41.21,8.12-81,20.72-118.63,39.63-44.63,39.09-97.52,63.76-137.11,107.59-59.47,65.86-101.29,143.06-143.42,220.13-5.91,10.81-11.35,21.88-17.6,32.47-3.52,5.97-7.4,12.32-12.7,16.47-5.01,3.92-13.24,8.41-17.95,6.73-4.67-1.66-9.47-10.74-9.39-16.49.23-15.45,1.19-31.36,5.16-46.21,15.06-56.39,44.67-105.58,78.4-152.54,4.92-6.85,9.39-14.02,12.85-21.91-42.86,36.77-74.48,82.36-98.54,132.67-24.04,50.24-44.58,102.16-65.25,150.09,24.98-126.52,73.16-245.36,174.33-336.48,99.22-89.36,219.83-123.7,349.85-132.16Z"/>
      <path class="st8" d="M837.16,469.79c-24.78-13.01-47.01-26.02-70.33-36.66-66.21-30.21-141.19-22.98-208.38-35.13-94.3,5.63-184.21,31.66-273.8,59.24-12.09,3.72-24.66,7.01-37.17,7.77-7.1.43-14.53-4.67-21.81-7.28,2.74-7.31,3.54-16.63,8.61-21.52,10.83-10.45,23.01-20.17,36.16-27.44,57.71-31.92,120.99-45.87,185.55-55.24,2.2-.32,4.33-1.08,6.35-2.26-56.61-4.43-111.68,4.19-164.69,22.72-52.5,18.36-103.82,40.07-150.14,58.15,215.65-152.13,466.09-159.37,689.65,37.65Z"/>
      <path class="st8" d="M479.08,263.5c-111.17-36.22-141.77-12.63-257.37,7.76,240.84-87.28,451.71-63.71,636.05,216.14-11.81-12.35-23.32-25.01-35.48-37-60.03-59.19-132.73-94.4-214.44-112-73.71-15.88-148.47-18.76-223.56-16.74-27.55.74-55.1,1.43-82.66,1.68-7.34.07-15.1-.38-21.91-2.76-5.65-1.98-13.75-6.69-14.3-11.01-.67-5.35,4.26-12.63,8.74-17.08,4.77-4.74,11.6-7.74,17.97-10.47,35.38-15.16,72.98-19.63,110.85-19.86,38.97-.23,38,.12,76.11,1.34Z"/>
      <path class="st8" d="M420.84,446.61c-110.2,23.3-196.14,92.5-282.04,162.13,55.07-64.84,118.42-119.6,194.56-158.63,76.71-39.32,158.16-56.92,244.37-52.06,85.98,4.85,165.98,30.79,242.5,69.2-16.17-4.54-32.23-9.51-48.53-13.56-81.05-20.14-156.27,6.93-238.8,16.04-75.96,34.39-141.75,57.13-207.63,97.07-20.41,12.38-40.27,25.71-61.03,37.44-9.07,5.13-19.56,8.86-29.84,10.45-11.73,1.81-16.41-4-13.33-15.67,2.15-8.12,6.18-16.17,11.06-23.06,20.85-29.43,48.82-51.42,79.38-69.48,36.29-21.46,73.93-40.62,109.33-59.87Z"/>
      <path class="st8" d="M729.11,476.99c-11.16,19.86-23.11,39.31-33.37,59.62-38.66,76.48-47.21,158.13-39.61,242.2,8.12,89.79,33.91,175.55,60.04,261.25,3.53,11.59,5.56,24.11,5.54,36.19-.03,15.7-10.83,20.95-22.87,10.7-11.08-9.43-21.33-20.84-28.9-33.23-29.81-48.79-32.23-54.7-48.77-108.76-3.91-12.78-6.33-15.21-9.56-28.63-6.82,117.64,35.79,158.79,84.23,262.23-62.82-60.06-123.57-249.26-119.21-357.56,5.49-136.67,80.36-265.84,152.47-344.01Z"/>
      <path class="st8" d="M459.49,744.37c-61.96,96.06-73.23,208.97-83.66,322.19-8.27-115.34,1.68-227.94,55.82-332.73,69.89-135.26,187.15-211.87,327.04-259.46-17.44,9.94-35.32,19.2-52.25,29.95-66.28,42.08-115.13,99.87-151.19,169.12-35.18,67.59-56.68,139.95-75.21,213.37-7.54,29.87-14.47,59.9-22.48,89.65-2.75,10.22-7.25,22.78-19.67,22.38-13.65-.44-15.39-14.29-17.83-24.93-7.51-32.85-4.43-65.98,3.04-97.96,10.6-45.41,24.71-90,36.38-131.58Z"/>
      <path class="st8" d="M737.59,479.25c-47.32,43.09-84.41,93.15-109.62,152.06-29.93,69.93-41.69,143.58-43.67,218.76-1.48,56.28.98,112.66,1.27,169,.05,9.8-.94,19.88-3.42,29.31-1.38,5.23-6.38,12.58-10.6,13.21-5.02.75-13.75-3.28-16-7.71-8.64-17.03-17.83-34.45-22.29-52.82-14.26-58.76-11.49-118.42-5.28-178,.49-4.73.81-9.49.24-14.33-18.91,53.87-24.7,109.64-20.14,166.05,4.48,55.46,12.15,110.65,18.15,163.56-42.48-126.94-59.04-256.99-12.98-389.77,40.92-117.96,145.51-222.66,224.35-269.32Z"/>
      <path class="st8" d="M825.49,1147.2c-22.77-22.89-10.37-9.33-32.08-33.19-67.71-74.4-116.84-158.91-135.95-258.88-13.99-73.17-9.25-145.63,8.42-217.76,12.18-49.72,31.69-96.48,53.69-142.43-5.54,20.92-11.02,41.85-16.62,62.75-8.29,30.9-9.85,62.28-8.9,94.18,2.91,97.68,37.91,185.32,84.02,269.25,22.56,41.07,48.11,80.5,71.67,121.04,6.95,11.95,13.12,24.75,17.1,37.93,3.77,12.49-4.11,20.37-16.18,15.79-12.71-4.82-25.26-12.11-35.48-21.06-35.85-31.39-60.64-71.37-82.78-112.93-11.96-22.44-22.35-45.72-33.89-68.36,23.22,113.94,40.18,141.3,111.96,227.34.6,1,15.87,25.47,15.01,26.33Z"/>
    </g>
  </g>
  <g>
    <polygon class="st2" points="559.83 687.86 565.96 700.28 579.68 702.28 569.75 711.95 572.1 725.61 559.83 719.16 547.57 725.61 549.91 711.95 539.99 702.28 553.7 700.28 559.83 687.86"/>
    <polygon class="st2" points="680.13 687.91 686.26 700.34 699.97 702.33 690.05 712 692.39 725.66 680.13 719.21 667.86 725.66 670.21 712 660.28 702.33 674 700.34 680.13 687.91"/>
    <g>
      <path class="st8" d="M745.24,692.82c-4.82,162.3-248.31,162.3-253.12,0-.08-2.68.96-4.92,2.22-4.91h5.16c1.26,0,2.28,2.08,2.36,4.53,4.45,149.82,229.22,149.82,233.66,0,.07-2.46,1.1-4.53,2.36-4.53h5.16c1.26-.01,2.3,2.23,2.22,4.91Z"/>
      <path class="st3" d="M745.24,692.82c-4.82,162.3-248.31,162.3-253.12,0-.08-2.68.96-4.92,2.22-4.91h5.16c1.26,0,2.28,2.08,2.36,4.53,4.45,149.82,229.22,149.82,233.66,0,.07-2.46,1.1-4.53,2.36-4.53h5.16c1.26-.01,2.3,2.23,2.22,4.91Z"/>
    </g>
    <path class="st2" d="M732.4,329.68c-1.38-1.38-3.65-1.38-5.03,0l-103.93,103.93v-41.24l110.7-110.7c1.38-1.38,1.38-3.65,0-5.03l-1.74-1.74c-1.38-1.38-3.65-1.38-5.03,0l-103.93,103.93v-44.04l109.35-109.35c1.38-1.38,1.38-3.65,0-5.03l-1.74-1.74c-1.38-1.38-3.65-1.38-5.03,0l-102.58,102.58v-44.27l100.99-100.99c1.38-1.38,1.38-3.65,0-5.03l-1.74-1.74c-1.38-1.38-3.65-1.38-5.03,0l-94.22,94.22v-41.58l79.42-79.42c1.38-1.38,1.38-3.65,0-5.03l-1.74-1.74c-1.38-1.38-3.65-1.38-5.03,0l-72.65,72.65v-49.13l46.14-46.14c1.38-1.38,1.38-3.65,0-5.03l-1.74-1.74c-1.38-1.38-3.65-1.38-5.03,0l-39.37,39.37v-44.02c0-1.95-1.59-3.54-3.54-3.54h-2.45c-1.95,0-3.54,1.59-3.54,3.54v44.02l-39.37-39.37c-1.38-1.38-3.65-1.38-5.03,0l-1.74,1.74c-1.38,1.38-1.38,3.65,0,5.03l46.14,46.14v49.13l-72.65-72.65c-1.38-1.38-3.65-1.38-5.03,0l-1.74,1.74c-1.38,1.38-1.38,3.65,0,5.03l79.42,79.42v41.58l-94.35-94.35c-1.38-1.38-3.65-1.38-5.03,0l-1.74,1.74c-1.38,1.38-1.38,3.65,0,5.03l101.12,101.12v44.27l-102.44-102.44c-1.38-1.38-3.65-1.38-5.03,0l-1.74,1.74c-1.38,1.38-1.38,3.65,0,5.03l109.21,109.21v44.04l-103.93-103.93c-1.38-1.38-3.65-1.38-5.03,0l-1.74,1.74c-1.38,1.38-1.38,3.65,0,5.03l110.7,110.7v41.24l-103.93-103.93c-1.38-1.38-3.65-1.38-5.03,0l-1.74,1.74c-1.38,1.38-1.38,3.65,0,5.03l110.7,110.7v432.08l-24.51-24.51c-1.38-1.38-3.63-1.38-5,0l-1.73,1.73c-1.38,1.38-1.38,3.63,0,5l33,33c.82.82,1.94,1.14,3,.98,1.07.15,2.19-.17,3-.98l33-33c1.38-1.38,1.38-3.63,0-5l-1.73-1.73c-1.38-1.38-3.63-1.38-5,0l-24.51,24.51v-432.08l110.7-110.7c1.38-1.38,1.38-3.65,0-5.03l-1.74-1.74Z"/>
    <path class="st1" d="M733.61,559.96h-2.46c-1.96,0-3.56,1.6-3.56,3.56v34.58l-219.59-219.59c-1.38-1.38-3.65-1.38-5.03,0l-1.74,1.74c-1.38,1.38-1.38,3.65,0,5.03l219.59,219.59h-34.58c-1.96,0-3.56,1.6-3.56,3.56v2.46c0,1.96,1.6,3.56,3.56,3.56h47.38c1.96,0,3.56-1.6,3.56-3.56v-47.38c0-1.96-1.6-3.56-3.56-3.56Z"/>
    <path class="st1" d="M503.75,559.96h2.46c1.96,0,3.56,1.6,3.56,3.56v34.58l219.59-219.59c1.38-1.38,3.65-1.38,5.03,0l1.74,1.74c1.38,1.38,1.38,3.65,0,5.03l-219.59,219.59h34.58c1.96,0,3.56,1.6,3.56,3.56v2.46c0,1.96-1.6,3.56-3.56,3.56h-47.38c-1.96,0-3.56-1.6-3.56-3.56v-47.38c0-1.96,1.6-3.56,3.56-3.56Z"/>
  </g>
</svg>