<?xml version="1.0" encoding="UTF-8"?>
<svg id="Layer_1" xmlns="http://www.w3.org/2000/svg" version="1.1" viewBox="0 0 1235.7 1235.4">
  <!-- Generator: Adobe Illustrator 29.8.1, SVG Export Plug-In . SVG Version: 2.1.1 Build 2)  -->
  <defs>
    <style>
      .st0 {
        fill: #1d1d1b;
      }

      .st0, .st1, .st2, .st3, .st4, .st5, .st6 {
        stroke-miterlimit: 10;
      }

      .st0, .st1, .st2, .st3, .st4, .st6 {
        stroke: #1d1d1b;
      }

      .st7, .st4 {
        fill: #fff;
      }

      .st1, .st2, .st5 {
        stroke-width: 2px;
      }

      .st2 {
        fill: none;
      }

      .st3 {
        fill: #fd0;
      }

      .st5 {
        stroke: #fff;
      }

      .st6 {
        fill: #e20613;
      }
    </style>
  </defs>
  <g>
    <path class="st4" d="M617.85,617.7C382.01,381.86,190.83,190.68,190.83,190.68c235.84-235.84,618.2-235.84,854.04,0"/>
    <path class="st6" d="M617.85,617.7c235.84,235.84,427.02,427.02,427.02,427.02-235.84,235.84-618.2,235.84-854.04,0"/>
    <path class="st0" d="M617.85,617.7c-235.84,235.84-427.02,427.02-427.02,427.02-235.84-235.84-235.84-618.2,0-854.04"/>
    <path class="st3" d="M617.85,617.7c235.84-235.84,427.02-427.02,427.02-427.02,235.84,235.84,235.84,618.2,0,854.04"/>
  </g>
  <circle class="st5" cx="618.26" cy="618.04" r="575.18"/>
  <g>
    <path class="st7" d="M512.86,132.94c-25.64-15.84-35.49-22.04-49.93-30.1-15.27-8.52,10.65-16.87,43.1-23.88,26.25-5.67,55.05-3.23,81.09-2.52,46.17.71,100.57,17.45,100.57,17.45h0c26.93,11.32,54.12,22.06,80.73,34.1,42.41,19.18,81.57,43.45,116.54,74.58,13.91,12.39,29.96,22.37,45.13,33.33.44.32.18,1.01-.37.96-44.19-3.6-86.45,27.86-85.93,64.28,0,.28.22.54.49.56,3.81.3,6.07-6.55,10.67-2.98.22.17.28.5.14.74-12.5,20.76-37.03,35.44-32.33,70.32.06.48.69.65.98.27,37.27-48.13,80.39-83.71,130.41-109.87.24-.13.36-.43.26-.69-4.91-12.93-18.9-12.27-23.63-21.79-.2-.39.17-.86.6-.78,17.45,3.07,32.23,8.86,35.44,29.89.69,4.52,5.83,9.25,10.1,12.14,11.77,7.96,20.11,19.62,24.23,31.73,16.04,47.07,59.32,86.18,88.82,113.31,4.44,4.08,9.86,23.09,1.04,41.14-6.92,14.17-12.97,25.38-1.32,39.05,6.74,7.91,3.43,16.99,1.21,25.72-1.45,5.67-7.63,11.56-1.45,17.2,13.89,12.67,8.55,23.92-2.23,34.34-10.51,10.15-4.19,19.59-.16,29.4,17.02,41.35,10.5,52.99-34.21,57.85-25.7,2.79-51.6,3.69-78.91,5.53-.2.01-.39.14-.47.33-27.98,62.44-12.49,121.61,14.33,180.08.27.59-.54,1.08-.92.55-30.28-41.91-41.76-88.58-36.51-139.61,4.05-39.35.26-44.7-38.78-51.64-57.85-10.28-61.09-13.17-72.17-67.34-.06-.31-.39-.52-.7-.44-37.52,9.18-42.59,23.85-46.83,62.29-7.16,64.93,30.28,94.91,79.27,120.3,18.34,9.5,36.13,20.3,52.65,43.63.35.49-.27,1.11-.77.78-25.85-16.89-44.57-31.87-66.44-41.87-67.75-30.96-136.04-24.47-180.08,53.09M1087.9,455.92s0-.03.01-.04c1.8-8.1,3.51-24.22-6.87-31.76-23.25-16.89-71.47-67.06-70.4-72.29,1.51-7.36-12.87-13.6-24.6-12.93-.37.02-.68-.34-.55-.7,2.63-7.51,16.92-5.21,12.18-18.34-.09-.26-.37-.42-.64-.37-26.02,5.2-48.52,18.79-71.5,31.15,18.09-19.99,44.35-26.69,66.31-39.95.26-.16.34-.52.18-.78-4.43-7.34-8.58-9.02-12.95-7.05-52.46,23.61-98.19,56.11-132.28,103.12-12.21,16.83-4.22,28.3,12.65,35.96,3.47,1.58,8.51,1.62,9.68,8.41.06.36-.26.69-.62.64-4.92-.74-10.55-1.4-11.34,5.5-.02.2.07.41.23.53,36.15,25.99,44.34,45.07,36.88,87.99-.09.49-.77.64-1.02.21-8.39-14.32-7.05-32.56-20.66-45.01-.44-.41-1.11.1-.85.64,8.19,17.03-12.87,29.29-6.23,47.63.2.54-.47.97-.88.56-3.33-3.31-5.98-5.94-11.72-11.64-.43-.43-1.12.06-.87.61,11.94,25.77,14.74,47.25,18.76,68.23,5.59,29.2,21.52,45.75,50.72,51.58,42.02,8.38,84.14,4.84,126.25,2.77,14.74-.73,34.02,1.71,38.36-17.16,4.02-17.46-3.15-33.91-20.55-44.94-.35-.22-.32-.71.04-.91,9.94-5.59,3.57-18.83,11.58-23.07,25.11-13.29,10.01-19.05-3.89-25.47-.29-.13-.4-.48-.24-.76,8.61-14.4,17.71-35.05,5.47-55.4-1.14-1.89,2.46-14.68,2.15-20.4,0-.09.01-.17.05-.24l5.06-10.28s.02-.04.03-.06l2.06-5.95ZM847.07,387.55c39.53-36.53,79.03-72.91,131.95-91.7.34-.12.47-.54.26-.83-13.52-19.67-31.16-22.19-44.95-14.57-49.17,27.21-87.22,66.37-114.52,115.57-.31.56.46,1.12.89.65,28.9-31.08,54.06-66.46,99.32-88.28.57-.27,1.06.51.58.92-30.46,25.81-57.19,47.28-74.39,77.56-.3.53.4,1.09.85.67Z"/>
    <g>
      <path class="st7" d="M810.24,467.53c-40.65-4.51-81.05-3.26-121.16,3.96-67.54,21.43-135.54,44.06-194.15,86.62-71.08,51.62-131.25,114.84-190.82,178.77-8.58,9.21-18.93,17.44-29.89,23.58-12.16,6.82-21.07,1.12-20.03-12.64.82-10.84,4.09-22.01,8.63-31.96,19.91-43.66,51.34-78.84,85.98-111.06,19.95-18.56,41.89-34.98,61.64-53.74-105.3,51.98-171.35,143.57-236.61,235.96,120.69-261.1,340.26-383.84,636.4-319.5Z"/>
      <path class="st7" d="M498.73,171.38c-112.56-43.42-65.06-27.75-163.63-45.07,130.52-9.47,197.35-4.21,311.28,66.7,114.56,71.3,181.07,178.67,224.35,302.97-13.37-21.47-25.73-43.65-40.28-64.29-49.03-69.57-115.89-116.81-192.8-150.94-70.92-31.47-145.52-51.15-220.85-68.44-15.28-3.51-30.5-7.35-45.64-11.43-4.73-1.27-9.88-2.93-13.46-6.01-5.02-4.33-12.77-10.83-12.04-15.18.94-5.57,8.3-12.19,14.34-14.42,30.03-11.06,61.04-8.24,91.85-3.65,52.48,7.83-15.79-3.41,46.89,9.76Z"/>
      <path class="st7" d="M782.04,465.74c-41.41,8.16-81.39,20.82-119.2,39.82-44.84,39.28-97.99,64.07-137.77,108.11-59.76,66.17-101.78,143.75-144.11,221.2-5.94,10.86-11.41,21.98-17.69,32.63-3.54,6-7.43,12.38-12.76,16.55-5.04,3.94-13.3,8.45-18.04,6.77-4.69-1.66-9.52-10.79-9.43-16.57.23-15.53,1.2-31.52,5.18-46.44,15.13-56.66,44.88-106.09,78.78-153.27,4.94-6.88,9.43-14.09,12.91-22.01-43.07,36.95-74.84,82.76-99.02,133.31-24.15,50.49-44.79,102.65-65.56,150.81,25.1-127.13,73.51-246.54,175.17-338.1,99.7-89.79,220.89-124.29,351.54-132.8Z"/>
      <path class="st7" d="M838.72,468.17c-24.9-13.07-47.24-26.15-70.66-36.84-66.53-30.36-141.87-23.09-209.38-35.3-94.76,5.66-185.1,31.81-275.12,59.53-12.15,3.74-24.78,7.04-37.35,7.81-7.13.44-14.6-4.69-21.92-7.31,2.75-7.35,3.56-16.71,8.65-21.63,10.88-10.5,23.12-20.26,36.33-27.57,57.99-32.07,121.58-46.09,186.44-55.5,2.21-.32,4.35-1.09,6.38-2.27-56.88-4.45-112.22,4.21-165.48,22.83-52.75,18.44-104.32,40.26-150.86,58.43,216.69-152.86,468.34-160.14,692.98,37.83Z"/>
      <path class="st7" d="M478.91,260.89c-111.7-36.39-142.45-12.69-258.61,7.79,242-87.7,453.89-64.01,639.12,217.18-11.87-12.41-23.43-25.13-35.65-37.18-60.32-59.48-133.37-94.85-215.48-112.54-74.07-15.96-149.18-18.85-224.64-16.83-27.68.74-55.37,1.44-83.06,1.69-7.37.07-15.18-.38-22.02-2.77-5.68-1.99-13.82-6.73-14.37-11.07-.68-5.38,4.28-12.69,8.78-17.16,4.79-4.76,11.65-7.77,18.05-10.52,35.55-15.23,73.33-19.73,111.39-19.95,39.16-.23,38.18.12,76.48,1.35Z"/>
      <path class="st7" d="M420.39,444.88c-110.73,23.41-197.08,92.94-283.4,162.91,55.34-65.15,119-120.18,195.5-159.39,77.08-39.51,158.93-57.19,245.55-52.31,86.4,4.87,166.78,30.93,243.67,69.53-16.25-4.57-32.39-9.56-48.76-13.63-81.44-20.23-157.02,6.96-239.95,16.12-76.33,34.56-142.44,57.4-208.63,97.54-20.51,12.44-40.46,25.83-61.33,37.62-9.12,5.15-19.66,8.91-29.98,10.5-11.79,1.82-16.49-4.02-13.39-15.74,2.16-8.16,6.21-16.25,11.11-23.17,20.96-29.57,49.06-51.66,79.76-69.82,36.46-21.56,74.29-40.81,109.86-60.16Z"/>
      <path class="st7" d="M730.15,475.41c-11.21,19.95-23.22,39.5-33.53,59.91-38.84,76.85-47.44,158.89-39.8,243.37,8.16,90.22,34.07,176.4,60.33,262.51,3.55,11.64,5.59,24.23,5.56,36.37-.03,15.78-10.88,21.05-22.98,10.75-11.13-9.48-21.43-20.94-29.04-33.39-29.95-49.03-32.39-54.97-49.01-109.29-3.93-12.85-6.36-15.28-9.6-28.77-6.85,118.21,35.97,159.56,84.64,263.49-63.12-60.34-124.16-250.47-119.79-359.29,5.52-137.33,80.75-267.12,153.21-345.67Z"/>
      <path class="st7" d="M459.23,744.07c-62.26,96.53-73.58,209.98-84.07,323.74-8.31-115.89,1.68-229.04,56.08-334.33,70.22-135.91,188.05-212.89,328.62-260.71-17.52,9.99-35.49,19.29-52.5,30.1-66.6,42.29-115.69,100.35-151.91,169.94-35.35,67.91-56.95,140.62-75.57,214.4-7.58,30.02-14.54,60.19-22.59,90.08-2.77,10.27-7.28,22.89-19.77,22.49-13.72-.44-15.47-14.36-17.91-25.05-7.54-33-4.45-66.3,3.05-98.43,10.65-45.63,24.83-90.44,36.56-132.22Z"/>
      <path class="st7" d="M738.67,477.68c-47.55,43.29-84.82,93.6-110.15,152.79-30.07,70.27-41.89,144.27-43.88,219.82-1.49,56.55.98,113.21,1.27,169.82.05,9.85-.94,19.97-3.44,29.45-1.39,5.26-6.41,12.64-10.65,13.27-5.04.75-13.82-3.29-16.08-7.75-8.68-17.11-17.92-34.61-22.4-53.07-14.33-59.04-11.55-118.99-5.3-178.86.5-4.76.81-9.53.24-14.4-19,54.13-24.82,110.17-20.24,166.85,4.5,55.72,12.21,111.19,18.24,164.35-42.69-127.55-59.32-258.22-13.04-391.65,41.11-118.53,146.21-223.73,225.43-270.62Z"/>
      <path class="st7" d="M827,1148.85c-22.88-23-10.42-9.38-32.23-33.35-68.04-74.76-117.4-159.67-136.6-260.13-14.05-73.52-9.29-146.33,8.46-218.81,12.24-49.96,31.85-96.95,53.95-143.11-5.56,21.02-11.07,42.05-16.7,63.05-8.33,31.05-9.9,62.58-8.94,94.63,2.93,98.15,38.09,186.21,84.42,270.55,22.67,41.27,48.34,80.88,72.02,121.62,6.98,12.01,13.19,24.87,17.18,38.11,3.79,12.55-4.13,20.47-16.26,15.87-12.77-4.85-25.38-12.17-35.65-21.16-36.03-31.54-60.93-71.71-83.18-113.48-12.02-22.55-22.46-45.94-34.05-68.69,23.33,114.49,40.38,141.98,112.5,228.44.6,1,15.94,25.59,15.09,26.46Z"/>
    </g>
  </g>
  <g>
    <polygon class="st1" points="560.06 687.29 566.22 699.78 580 701.78 570.03 711.5 572.38 725.22 560.06 718.74 547.73 725.22 550.08 711.5 540.11 701.78 553.89 699.78 560.06 687.29"/>
    <polygon class="st1" points="680.93 687.35 687.09 699.83 700.87 701.83 690.9 711.55 693.25 725.27 680.93 718.8 668.61 725.27 670.96 711.55 660.99 701.83 674.77 699.83 680.93 687.35"/>
    <g>
      <path d="M746.36,692.26c-4.82,163.11-249.53,163.11-254.35,0-.08-2.68.96-4.92,2.22-4.91h5.2c1.26,0,2.28,2.08,2.36,4.53,4.45,150.57,230.34,150.57,234.79,0,.07-2.46,1.1-4.53,2.36-4.53h5.2c1.26-.01,2.3,2.23,2.22,4.91Z"/>
      <path class="st2" d="M746.36,692.26c-4.82,163.11-249.53,163.11-254.35,0-.08-2.68.96-4.92,2.22-4.91h5.2c1.26,0,2.28,2.08,2.36,4.53,4.45,150.57,230.34,150.57,234.79,0,.07-2.46,1.1-4.53,2.36-4.53h5.2c1.26-.01,2.3,2.23,2.22,4.91Z"/>
    </g>
    <path class="st1" d="M733.45,327.39c-1.39-1.39-3.66-1.39-5.06,0l-104.43,104.43v-41.44l111.24-111.24c1.39-1.39,1.39-3.66,0-5.06l-1.75-1.75c-1.39-1.39-3.66-1.39-5.06,0l-104.43,104.43v-44.25l109.88-109.88c1.39-1.39,1.39-3.66,0-5.06l-1.75-1.75c-1.39-1.39-3.66-1.39-5.06,0l-103.07,103.07v-44.48l101.48-101.48c1.39-1.39,1.39-3.66,0-5.06l-1.75-1.75c-1.39-1.39-3.66-1.39-5.06,0l-94.67,94.67v-41.78l79.8-79.8c1.39-1.39,1.39-3.66,0-5.06l-1.75-1.75c-1.39-1.39-3.66-1.39-5.06,0l-73,73v-49.37l46.37-46.37c1.39-1.39,1.39-3.66,0-5.06l-1.75-1.75c-1.39-1.39-3.66-1.39-5.06,0l-39.56,39.56v-44.23c0-1.95-1.6-3.55-3.55-3.55h-2.46c-1.95,0-3.55,1.6-3.55,3.55v44.23l-39.56-39.56c-1.39-1.39-3.66-1.39-5.06,0l-1.75,1.75c-1.39,1.39-1.39,3.66,0,5.06l46.37,46.37v49.37l-73-73c-1.39-1.39-3.66-1.39-5.06,0l-1.75,1.75c-1.39,1.39-1.39,3.66,0,5.06l79.8,79.8v41.78l-94.81-94.81c-1.39-1.39-3.66-1.39-5.06,0l-1.75,1.75c-1.39,1.39-1.39,3.66,0,5.06l101.61,101.61v44.48l-102.93-102.93c-1.39-1.39-3.66-1.39-5.06,0l-1.75,1.75c-1.39,1.39-1.39,3.66,0,5.06l109.74,109.74v44.25l-104.43-104.43c-1.39-1.39-3.66-1.39-5.06,0l-1.75,1.75c-1.39,1.39-1.39,3.66,0,5.06l111.24,111.24v41.44l-104.43-104.43c-1.39-1.39-3.66-1.39-5.06,0l-1.75,1.75c-1.39,1.39-1.39,3.66,0,5.06l111.24,111.24v434.16l-24.63-24.63c-1.38-1.38-3.64-1.38-5.03,0l-1.74,1.74c-1.38,1.38-1.38,3.64,0,5.03l33.16,33.16c.82.82,1.95,1.14,3.02.99,1.07.15,2.2-.17,3.02-.99l33.16-33.16c1.38-1.38,1.38-3.64,0-5.03l-1.74-1.74c-1.38-1.38-3.64-1.38-5.03,0l-24.63,24.63v-434.16l111.24-111.24c1.39-1.39,1.39-3.66,0-5.06l-1.75-1.75Z"/>
    <path class="st1" d="M734.67,558.77h-2.47c-1.97,0-3.57,1.61-3.57,3.57v34.75l-220.65-220.65c-1.39-1.39-3.66-1.39-5.06,0l-1.75,1.75c-1.39,1.39-1.39,3.66,0,5.06l220.65,220.65h-34.75c-1.97,0-3.57,1.61-3.57,3.57v2.47c0,1.97,1.61,3.57,3.57,3.57h47.6c1.97,0,3.57-1.61,3.57-3.57v-47.6c0-1.97-1.61-3.57-3.57-3.57Z"/>
    <path class="st1" d="M503.7,558.77h2.47c1.97,0,3.57,1.61,3.57,3.57v34.75l220.65-220.65c1.39-1.39,3.66-1.39,5.06,0l1.75,1.75c1.39,1.39,1.39,3.66,0,5.06l-220.65,220.65h34.75c1.97,0,3.57,1.61,3.57,3.57v2.47c0,1.97-1.61,3.57-3.57,3.57h-47.6c-1.97,0-3.57-1.61-3.57-3.57v-47.6c0-1.97,1.61-3.57,3.57-3.57Z"/>
  </g>
</svg>